<mxfile host="app.diagrams.net" modified="2024-06-13T15:53:47.196Z" agent="Mozilla/5.0 (Windows NT 10.0; Win64; x64) AppleWebKit/537.36 (KHTML, like Gecko) Chrome/126.0.0.0 Safari/537.36" etag="KqtIvW4LUKJUXKFgKEoc" version="24.4.10" type="device">
  <diagram id="C5RBs43oDa-KdzZeNtuy" name="Page-1">
    <mxGraphModel dx="1500" dy="796" grid="1" gridSize="10" guides="1" tooltips="1" connect="1" arrows="1" fold="1" page="1" pageScale="1" pageWidth="827" pageHeight="1169" math="0" shadow="0">
      <root>
        <mxCell id="WIyWlLk6GJQsqaUBKTNV-0" />
        <mxCell id="WIyWlLk6GJQsqaUBKTNV-1" parent="WIyWlLk6GJQsqaUBKTNV-0" />
        <mxCell id="_THIBgkANRn3BUL_7nDO-1" value="Klijent" style="swimlane;fontStyle=0;childLayout=stackLayout;horizontal=1;startSize=26;fillColor=none;horizontalStack=0;resizeParent=1;resizeParentMax=0;resizeLast=0;collapsible=1;marginBottom=0;whiteSpace=wrap;html=1;" vertex="1" parent="WIyWlLk6GJQsqaUBKTNV-1">
          <mxGeometry x="280" y="80" width="140" height="118" as="geometry" />
        </mxCell>
        <mxCell id="_THIBgkANRn3BUL_7nDO-5" value="+ Web aplikacija" style="text;strokeColor=none;fillColor=none;align=left;verticalAlign=top;spacingLeft=4;spacingRight=4;overflow=hidden;rotatable=0;points=[[0,0.5],[1,0.5]];portConstraint=eastwest;whiteSpace=wrap;html=1;" vertex="1" parent="_THIBgkANRn3BUL_7nDO-1">
          <mxGeometry y="26" width="140" height="44" as="geometry" />
        </mxCell>
        <mxCell id="_THIBgkANRn3BUL_7nDO-2" value="+ Mobilna aplikacija&amp;nbsp;" style="text;strokeColor=none;fillColor=none;align=left;verticalAlign=top;spacingLeft=4;spacingRight=4;overflow=hidden;rotatable=0;points=[[0,0.5],[1,0.5]];portConstraint=eastwest;whiteSpace=wrap;html=1;" vertex="1" parent="_THIBgkANRn3BUL_7nDO-1">
          <mxGeometry y="70" width="140" height="48" as="geometry" />
        </mxCell>
        <mxCell id="_THIBgkANRn3BUL_7nDO-19" value="&#xa;JDBC&#xa;&#xa;" style="edgeStyle=orthogonalEdgeStyle;rounded=0;orthogonalLoop=1;jettySize=auto;html=1;entryX=0;entryY=0.5;entryDx=0;entryDy=0;" edge="1" parent="WIyWlLk6GJQsqaUBKTNV-1" source="_THIBgkANRn3BUL_7nDO-7" target="_THIBgkANRn3BUL_7nDO-14">
          <mxGeometry x="-0.486" y="15" relative="1" as="geometry">
            <mxPoint as="offset" />
          </mxGeometry>
        </mxCell>
        <mxCell id="_THIBgkANRn3BUL_7nDO-21" value="&#xa;External API Calls&#xa;&#xa;" style="edgeStyle=orthogonalEdgeStyle;rounded=0;orthogonalLoop=1;jettySize=auto;html=1;entryX=0.5;entryY=0;entryDx=0;entryDy=0;" edge="1" parent="WIyWlLk6GJQsqaUBKTNV-1" source="_THIBgkANRn3BUL_7nDO-7" target="_THIBgkANRn3BUL_7nDO-16">
          <mxGeometry x="-0.0338" y="50" relative="1" as="geometry">
            <mxPoint x="46" y="-30" as="offset" />
          </mxGeometry>
        </mxCell>
        <mxCell id="_THIBgkANRn3BUL_7nDO-7" value="Aplikacijski poslužitelj " style="swimlane;fontStyle=0;childLayout=stackLayout;horizontal=1;startSize=30;fillColor=none;horizontalStack=0;resizeParent=1;resizeParentMax=0;resizeLast=0;collapsible=1;marginBottom=0;whiteSpace=wrap;html=1;" vertex="1" parent="WIyWlLk6GJQsqaUBKTNV-1">
          <mxGeometry x="274" y="290" width="180" height="170" as="geometry" />
        </mxCell>
        <mxCell id="_THIBgkANRn3BUL_7nDO-9" value="+ Backend aplikacija&amp;nbsp;&lt;br&gt;- Upravljanje vozačima&amp;nbsp;&lt;br&gt;&amp;nbsp;- Upravljanje vozilima&amp;nbsp;&lt;br&gt;&amp;nbsp;- Upravljanje rutama&amp;nbsp;&lt;br&gt;&amp;nbsp;- Upravljanje stanicama&amp;nbsp;&lt;br&gt;&amp;nbsp;- Upravljanje kartama&amp;nbsp;&lt;br&gt;&amp;nbsp;- Upravljanje putnicima&amp;nbsp;&lt;br&gt;&amp;nbsp;- Održavanje i incidenti" style="text;strokeColor=none;fillColor=none;align=left;verticalAlign=top;spacingLeft=4;spacingRight=4;overflow=hidden;rotatable=0;points=[[0,0.5],[1,0.5]];portConstraint=eastwest;whiteSpace=wrap;html=1;" vertex="1" parent="_THIBgkANRn3BUL_7nDO-7">
          <mxGeometry y="30" width="180" height="140" as="geometry" />
        </mxCell>
        <mxCell id="_THIBgkANRn3BUL_7nDO-12" value="DB poslužitelj " style="swimlane;fontStyle=0;childLayout=stackLayout;horizontal=1;startSize=26;fillColor=none;horizontalStack=0;resizeParent=1;resizeParentMax=0;resizeLast=0;collapsible=1;marginBottom=0;whiteSpace=wrap;html=1;" vertex="1" parent="WIyWlLk6GJQsqaUBKTNV-1">
          <mxGeometry x="570" y="340" width="150" height="170" as="geometry" />
        </mxCell>
        <mxCell id="_THIBgkANRn3BUL_7nDO-14" value="+ Baza podataka&lt;br&gt;&lt;span style=&quot;white-space: pre;&quot;&gt;&#x9;&lt;/span&gt;- Vozač&amp;nbsp;&lt;br&gt;&lt;span style=&quot;white-space: pre;&quot;&gt;&#x9;&lt;/span&gt;- Vozilo&amp;nbsp;&lt;br&gt;&lt;span style=&quot;white-space: pre;&quot;&gt;&#x9;&lt;/span&gt;- Ruta&amp;nbsp;&lt;br&gt;&lt;span style=&quot;white-space: pre;&quot;&gt;&#x9;&lt;/span&gt;- Stanica&amp;nbsp;&lt;br&gt;&lt;span style=&quot;white-space: pre;&quot;&gt;&#x9;&lt;/span&gt;- Karta&amp;nbsp;&lt;br&gt;&lt;span style=&quot;white-space: pre;&quot;&gt;&#x9;&lt;/span&gt;- Putnik" style="text;strokeColor=none;fillColor=none;align=left;verticalAlign=top;spacingLeft=4;spacingRight=4;overflow=hidden;rotatable=0;points=[[0,0.5],[1,0.5]];portConstraint=eastwest;whiteSpace=wrap;html=1;" vertex="1" parent="_THIBgkANRn3BUL_7nDO-12">
          <mxGeometry y="26" width="150" height="144" as="geometry" />
        </mxCell>
        <mxCell id="_THIBgkANRn3BUL_7nDO-16" value="Vanjske usluge ( API )" style="swimlane;fontStyle=0;childLayout=stackLayout;horizontal=1;startSize=26;fillColor=none;horizontalStack=0;resizeParent=1;resizeParentMax=0;resizeLast=0;collapsible=1;marginBottom=0;whiteSpace=wrap;html=1;" vertex="1" parent="WIyWlLk6GJQsqaUBKTNV-1">
          <mxGeometry x="287" y="660" width="140" height="118" as="geometry" />
        </mxCell>
        <mxCell id="_THIBgkANRn3BUL_7nDO-17" value="+ Plaćanja:&amp;nbsp;&lt;div&gt;&lt;span style=&quot;white-space: pre;&quot;&gt;&#x9;&lt;/span&gt;&lt;/div&gt;" style="text;strokeColor=none;fillColor=none;align=left;verticalAlign=top;spacingLeft=4;spacingRight=4;overflow=hidden;rotatable=0;points=[[0,0.5],[1,0.5]];portConstraint=eastwest;whiteSpace=wrap;html=1;" vertex="1" parent="_THIBgkANRn3BUL_7nDO-16">
          <mxGeometry y="26" width="140" height="44" as="geometry" />
        </mxCell>
        <mxCell id="_THIBgkANRn3BUL_7nDO-18" value="+ Mape :&amp;nbsp;&lt;div&gt;&lt;br&gt;&lt;/div&gt;" style="text;strokeColor=none;fillColor=none;align=left;verticalAlign=top;spacingLeft=4;spacingRight=4;overflow=hidden;rotatable=0;points=[[0,0.5],[1,0.5]];portConstraint=eastwest;whiteSpace=wrap;html=1;" vertex="1" parent="_THIBgkANRn3BUL_7nDO-16">
          <mxGeometry y="70" width="140" height="48" as="geometry" />
        </mxCell>
        <mxCell id="_THIBgkANRn3BUL_7nDO-22" value="&#xa;HTTPS&#xa;&#xa;" style="edgeStyle=orthogonalEdgeStyle;rounded=0;orthogonalLoop=1;jettySize=auto;html=1;entryX=0.459;entryY=-0.001;entryDx=0;entryDy=0;entryPerimeter=0;" edge="1" parent="WIyWlLk6GJQsqaUBKTNV-1" source="_THIBgkANRn3BUL_7nDO-1" target="_THIBgkANRn3BUL_7nDO-7">
          <mxGeometry x="-0.0121" y="33" relative="1" as="geometry">
            <Array as="points">
              <mxPoint x="350" y="240" />
              <mxPoint x="357" y="240" />
            </Array>
            <mxPoint as="offset" />
          </mxGeometry>
        </mxCell>
      </root>
    </mxGraphModel>
  </diagram>
</mxfile>
